<?xml version="1.0" encoding="utf-8"?>
<!-- Generator: Adobe Illustrator 19.0.0, SVG Export Plug-In . SVG Version: 6.00 Build 0)  -->
<svg version="1.1" id="Layer_1" xmlns="http://www.w3.org/2000/svg" xmlns:xlink="http://www.w3.org/1999/xlink" x="0px" y="0px"
	 viewBox="-408 286.3 24 24" style="enable-background:new -408 286.3 24 24;" xml:space="preserve">
<style type="text/css">
	.st0{fill:#F7F7F7;}
</style>
<g>
	<path class="st0" d="M-395.1,296.3h-12.4c-0.3,0-0.5,0.2-0.5,0.5s0.2,0.5,0.5,0.5h11.4L-395.1,296.3z"/>
	<path class="st0" d="M-384.5,296.3h-8.2l-1,1h9.2c0.3,0,0.5-0.2,0.5-0.5S-384.2,296.3-384.5,296.3z"/>
</g>
<g>
	<path class="st0" d="M-402.5,300.3h3l1-1h-4c-0.3,0-0.5,0.2-0.5,0.5S-402.8,300.3-402.5,300.3z"/>
	<path class="st0" d="M-389.5,299.3h-6.6l-1,1h7.6c0.3,0,0.5-0.2,0.5-0.5S-389.2,299.3-389.5,299.3z"/>
</g>
</svg>
