<?xml version="1.0" encoding="utf-8"?>
<!-- Generator: Adobe Illustrator 19.0.0, SVG Export Plug-In . SVG Version: 6.00 Build 0)  -->
<svg version="1.1" id="Layer_1" xmlns="http://www.w3.org/2000/svg" xmlns:xlink="http://www.w3.org/1999/xlink" x="0px" y="0px"
	 viewBox="-408 286.3 24 24" style="enable-background:new -408 286.3 24 24;" xml:space="preserve">
<style type="text/css">
	.st0{fill:#F7F7F7;}
</style>
<g>
	<g>
		<path class="st0" d="M-384.5,297.3h-23c-0.3,0-0.5-0.2-0.5-0.5s0.2-0.5,0.5-0.5h23c0.3,0,0.5,0.2,0.5,0.5
			S-384.2,297.3-384.5,297.3z"/>
	</g>
	<g>
		<path class="st0" d="M-389.5,300.3h-13c-0.3,0-0.5-0.2-0.5-0.5s0.2-0.5,0.5-0.5h13c0.3,0,0.5,0.2,0.5,0.5
			S-389.2,300.3-389.5,300.3z"/>
	</g>
</g>
<g>
	<path class="st0" d="M-389.9,292.4l-11.5,11.5c-0.2,0.2-0.4,0.1-0.6-0.1c-0.2-0.2-0.3-0.5-0.1-0.6l11.5-11.5
		c0.2-0.2,0.4-0.1,0.6,0.1S-389.7,292.3-389.9,292.4z"/>
</g>
</svg>
